<?xml version="1.0" encoding="UTF-8"?>
<svg id="Layer_1" xmlns="http://www.w3.org/2000/svg" version="1.1" viewBox="0 0 1500 500">
  <!-- Generator: Adobe Illustrator 30.0.0, SVG Export Plug-In . SVG Version: 2.1.1 Build 123)  -->
  <defs>
    <style>
      .st0 {
        fill: #1c1d4a;
      }

      .st1 {
        fill: #4668b1;
      }

      .st2 {
        fill: #fff;
      }

      .st3 {
        fill: #4367b1;
      }

      .st4 {
        fill: #1b1c4a;
      }

      .st5 {
        fill: #1d1e4b;
      }

      .st6 {
        fill: #fcfcfc;
      }

      .st7 {
        fill: #fcfcfe;
      }

      .st8 {
        fill: #fcfcfd;
      }

      .st9 {
        fill: #1e1f4c;
      }
    </style>
  </defs>
  <path class="st2" d="M1500,0v500H0V0h1500ZM180.8,99.3c-43.88,3.59-85.77,34.05-104.66,73.34-48.43,100.74,44.95,162.92,96.67,234.04,6.5,8.94,14.17,29.88,27.88,22.51,4.69-2.52,13.48-19,17.49-24.51,49.54-68.18,136.89-125.48,99.3-222.67-21.69-56.08-77.31-87.58-136.68-82.72ZM1051.74,168.24c-7.75,1.3-15.84,9.4-16.74,17.26-4.12,35.98,50.62,34.65,47,1-1.63-15.16-16.84-20.5-30.26-18.26ZM437,313v-140.5l-1.5-1.5h-41.5v180h133v-38h-90ZM974,171v180h41v-180h-41ZM1439,171h-41.5l-13.5,38h33.5c5.58-11.03,16.03-23.21,20.72-34.28.54-1.26,1.04-2.26.78-3.72ZM596.8,221.3c-43.16,3.09-66.57,33.61-62.78,76.19,6.44,72.3,122.42,75.73,137.33,8.36,11.32-51.14-23.27-88.22-74.55-84.55ZM747.8,221.3c-45.4,3.28-70.89,40.47-61.14,84.54,10.06,45.48,66.9,60.07,104.36,38.68,3.11-1.77,14.81-9.27,13.88-12.82l-21.54-22.6c-22.56,19.2-59.37,10.89-58.42-22.61.85-30.13,34.79-39.86,55.78-21.61h1.59s21.71-24.36,21.71-24.36c-15.56-14.02-35.19-20.75-56.2-19.23ZM916,351h36v-127h-36l-2.01,14c-24.9-23.91-66.55-22.1-88.5,4.99-17.15,21.17-18.69,57.07-5.66,80.68,18.98,34.37,66.14,40.18,94.16,13.33l2.01,14ZM1325,351h35v-127h-35l-2.01,14c-.75.85-9.06-6.8-10.67-7.82-32.64-20.66-76.44-4.23-88.6,32.04-18.48,55.1,25.49,109.51,82.8,85.8l16.48-11.01,2.01,14ZM1078,224h-40v127h40v-127ZM1207,224h-107v33.5l1.5,1.5h47.5l-53.46,78.04-.54,13.96h114v-35h-55l52.46-78.04.54-13.96ZM1423,224h-40v127h40v-127Z"/>
  <g>
    <g>
      <path class="st3" d="M180.8,99.3c59.37-4.86,115,26.64,136.68,82.72,37.59,97.18-49.76,154.49-99.3,222.67-4.01,5.51-12.8,21.99-17.49,24.51-13.72,7.37-21.38-13.56-27.88-22.51-51.72-71.12-145.1-133.3-96.67-234.04,18.89-39.29,60.78-69.75,104.66-73.34ZM246.69,225.8c0-28.67-23.24-51.92-51.92-51.92s-51.92,23.24-51.92,51.92,23.24,51.92,51.92,51.92,51.92-23.24,51.92-51.92Z"/>
      <circle class="st7" cx="194.77" cy="225.8" r="51.92"/>
    </g>
    <path class="st8" d="M874.74,256.24c48.8-7.6,50.26,69.58-.15,62.67-29.73-4.07-30.9-57.84.15-62.67Z"/>
    <g>
      <g>
        <path class="st3" d="M1325,351l-2.01-14-16.48,11.01c-57.3,23.71-101.27-30.7-82.8-85.8,12.16-36.27,55.97-52.7,88.6-32.04,1.61,1.02,9.92,8.67,10.67,7.82l2.01-14h35v127h-35ZM1282.74,256.24c-28.63,4.43-31.1,54.21-1.78,62.3,48.54,13.4,55.37-70.59,1.78-62.3Z"/>
        <g>
          <rect class="st3" x="1383" y="224" width="40" height="127"/>
          <path class="st1" d="M1439,171c.26,1.46-.25,2.45-.78,3.72-4.69,11.08-15.14,23.25-20.72,34.28h-33.5l13.5-38h41.5Z"/>
        </g>
      </g>
      <path class="st7" d="M1282.74,256.24c53.58-8.29,46.76,75.7-1.78,62.3-29.32-8.09-26.85-57.87,1.78-62.3Z"/>
      <g>
        <polygon class="st0" points="1207 224 1206.46 237.96 1154 316 1209 316 1209 351 1095 351 1095.54 337.04 1149 259 1101.5 259 1100 257.5 1100 224 1207 224"/>
        <rect class="st9" x="974" y="171" width="41" height="180"/>
        <g>
          <rect class="st4" x="1038" y="224" width="40" height="127"/>
          <path class="st5" d="M1051.74,168.24c13.42-2.25,28.63,3.1,30.26,18.26,3.61,33.65-51.12,34.98-47-1,.9-7.86,8.99-15.96,16.74-17.26Z"/>
        </g>
        <g>
          <path class="st5" d="M916,351l-2.01-14c-28.02,26.84-75.18,21.03-94.16-13.33-13.04-23.61-11.49-59.51,5.66-80.68,21.95-27.09,63.6-28.9,88.5-4.99l2.01-14h36v127h-36ZM874.74,256.24c-31.05,4.84-29.88,58.6-.15,62.67,50.41,6.9,48.96-70.27.15-62.67Z"/>
          <polygon class="st0" points="437 313 527 313 527 351 394 351 394 171 435.5 171 437 172.5 437 313"/>
          <path class="st5" d="M747.8,221.3c21.01-1.52,40.64,5.21,56.2,19.23l-21.71,24.36h-1.59c-20.99-18.26-54.93-8.53-55.78,21.6-.94,33.5,35.86,41.81,58.42,22.61l21.54,22.6c.93,3.55-10.77,11.04-13.88,12.82-37.46,21.4-94.3,6.8-104.36-38.68-9.75-44.07,15.74-81.26,61.14-84.54Z"/>
          <g>
            <path class="st0" d="M596.8,221.3c51.27-3.67,85.86,33.4,74.55,84.55-14.91,67.37-130.89,63.95-137.33-8.36-3.79-42.58,19.62-73.1,62.78-76.19ZM596.74,256.24c-32.49,5.06-32.61,69.14,13.5,62.5,32.63-4.7,31.71-69.54-13.5-62.5Z"/>
            <path class="st6" d="M596.74,256.24c45.21-7.04,46.13,57.8,13.5,62.5-46.11,6.64-45.99-57.44-13.5-62.5Z"/>
          </g>
        </g>
      </g>
    </g>
  </g>
</svg>